#!OML:ASF E:/inclinewalkrobotboard/Project1/Captureday1/Session1/subject1.ASF
:FULLY-SPECIFIED
:DEGREES
88
root 0 0 0 -2.0900640417441734 -6.08048295713834 -7.078924597466574
lowerback 8.9026390601318 2.9689839181501947 5.484943950176365
upperback 0.2218947606949423 4.552894278501011 0.9716897921365083
thorax -4.60751166878544 2.144188210143555 -2.626409363526161
lowerneck -12.862683551985619 -3.528738844427643 -1.7163622986953815
upperneck 13.172915397003157 -5.006642053499139 3.5539968935093276
head 6.162890976375291 -2.278173508729659 0.9604874150511671
rclavicle -3.047564463939987E-15 -1.5637051027279353E-15
rhumerus -30.66755951146544 -17.455171073674105 -83.79601710764393
rradius 20.820644367822695
rwrist 13.56729275333548
rhand -18.988852265464537 30.733625518269662
rfingers 7.125020000000001
rthumb 7.32713691594851 0.6862102588854029
lclavicle -4.1948305142008794E-15 -1.1946335699108281E-15
lhumerus -34.98712529935066 8.08188331133145 79.56468553405209
lradius 16.7547321446035
lwrist -1.2372052097473554
lhand -27.2970474349856 27.42367948539307
lfingers 7.1250199999999895
lthumb -0.7520867237869391 57.506675878048625
rfemur -11.536173125731914 5.292425761324806 28.18811154530022
rtibia 40.70411225405661
rfoot -8.826330340435927 -6.2782362353832895
rtoes 5.29040845236557
lfemur -17.89629292609394 -0.295559643042306 -17.631041190501413
ltibia 36.95175989941881
lfoot -2.557926333856921 -4.2565048553745815
ltoes -2.498979715861207
89
root 0 0 0 -2.1285356012233407 -6.0770840123741365 -7.0161127164379264
lowerback 9.001982902871891 2.9532555492826686 5.43518832614808
upperback 0.3056990233290076 4.527147111414055 0.979328526510928
thorax -4.5723713078637775 2.1328840899212214 -2.586590726493705
lowerneck -12.816900247016402 -3.5367370640219526 -1.731656353729997
upperneck 13.277798386041212 -5.010250514116681 3.5507222680836916
head 6.186325279415052 -2.2811973012894375 0.9600754421672499
rclavicle -2.990472088452257E-15 -1.5804945282162572E-15
rhumerus -30.57452705240771 -17.514644140926073 -83.7136447568906
rradius 21.00703006532769
rwrist 13.56503452283108
rhand -19.048063806319043 30.75273767889321
rfingers 7.125020000000002
rthumb 7.270152677827562 0.6982704500231591
lclavicle -4.149570145406813E-15 -1.2264238639331465E-15
lhumerus -34.957588658556105 8.01829672812729 79.55794725484304
lradius 16.843042294573088
lwrist -1.1560086689803244
lhand -27.320746228235592 27.46236399664556
lfingers 7.12501999999999
lthumb -0.7746391643994279 57.54729771342594
rfemur -11.82650182588128 5.2438852618341905 28.077263323349783
rtibia 40.89505405443599
rfoot -8.703719916276839 -6.318161750103603
rtoes 5.287136898711198
lfemur -17.513399945234116 -0.49791879327709143 -17.793102919498768
ltibia 36.56507601202201
lfoot -2.811550829590736 -4.100020889306347
ltoes -2.290424872056281
90
root 0 0 0 -2.175396952954329 -6.0752659283010875 -6.94343894441761
lowerback 9.111424875127996 2.9310727538409065 5.383279523700902
upperback 0.4043081765581604 4.492493453290387 0.9894796727309061
thorax -4.526755212380713 2.1171576275865442 -2.5415449473203817
lowerneck -12.780993140121291 -3.541194533507691 -1.7501708740495148
upperneck 13.398045286493266 -5.0062542302513915 3.536662853711787
head 6.214071603747937 -2.281377173263698 0.9567884813103198
rclavicle -2.9385741287393936E-15 -1.6063234089096077E-15
rhumerus -30.458385780759464 -17.595318296443068 -83.61910151258195
rradius 21.238409255975213
rwrist 13.609020797821085
rhand -19.124688529441656 30.773821055882166
rfingers 7.125020000000002
rthumb 7.196546952120232 0.7104528864115167
lclavicle -4.109977326101003E-15 -1.2667748808301867E-15
lhumerus -34.92664952895009 7.952937702913766 79.54960046414038
lradius 16.934478867168988
lwrist -1.0716891657016738
lhand -27.345891962509455 27.502634630397004
lfingers 7.125019999999991
lthumb -0.7986289603860781 57.589607980358934
rfemur -12.120548627424633 5.191873134469699 27.948908321645654
rtibia 41.06465769294665
rfoot -8.576032083961085 -6.357300259050836
rtoes 5.275127771505022
lfemur -17.063159022213046 -0.7358924795547024 -17.977826530014283
ltibia 36.11907502484917
lfoot -3.110159053504349 -3.9153287315154564
ltoes -2.0621090433311444
91
root 0 0 0 -2.3071757532788135 -6.0671710063961966 -6.79429174172738
lowerback 9.238952066532445 2.8813771786275804 5.268424831656652
upperback 0.5439419199156946 4.416396128131701 1.0120125697102837
thorax -4.4470167573800214 2.0823420206284893 -2.4403577719756093
lowerneck -12.804326036278056 -3.552461807164936 -1.7916840937871155
upperneck 13.720834931870446 -5.006680170023051 3.5020423843506006
head 6.314802575227038 -2.2832976112618413 0.9460132844125089
rclavicle -2.835731652907577E-15 -1.5952263474186601E-15
rhumerus -30.29029992505925 -17.875942154442207 -83.42035812831885
rradius 21.543253252750333
rwrist 13.657969769508625
rhand -19.246081535095367 30.751204851000274
rfingers 7.125020000000003
rthumb 7.080256076510618 0.6741094123221529
lclavicle -4.025985328133534E-15 -1.2854139225249905E-15
lhumerus -34.88924144853416 7.840257103199405 79.52260958011622
lradius 17.1107522201049
lwrist -0.9159577608414438
lhand -27.388206913466075 27.56827196637172
lfingers 7.125019999999992
lthumb -0.8386083831852229 57.65902424640837
rfemur -12.597560632342576 5.087962637299409 27.67956694967215
rtibia 41.32880716830712
rfoot -8.31701061743324 -6.403644679419799
rtoes 5.256193794383895
lfemur -16.142847128180154 -1.1793519529850176 -18.3381808287857
ltibia 35.30563736308805
lfoot -3.6834938856550394 -3.5842678444159852
ltoes -1.6645506657511504
92
root 0 0 0 -2.430985026471694 -6.066978499607895 -6.642680369596297
lowerback 9.391102638301625 2.8208483165378504 5.17180702671093
upperback 0.7278928194549202 4.326629723610235 1.0389634037476356
thorax -4.332401270649471 2.0401804177960097 -2.3428654166761755
lowerneck -12.820548817635833 -3.544498654083323 -1.8316921542162898
upperneck 14.083447755121076 -4.975909541011401 3.4411440725911318
head 6.421588259864588 -2.2719417391454564 0.9286914007672173
rclavicle -2.7997045938539856E-15 -1.688376672850128E-15
rhumerus -30.202299956324968 -18.008195940703246 -83.35880260133234
rradius 21.780856490022813
rwrist 13.835488730302803
rhand -19.355590498763558 30.760386210300773
rfingers 7.125020000000003
rthumb 6.9752758334935985 0.6710807654848665
lclavicle -3.99784983426878E-15 -1.387370059064808E-15
lhumerus -34.84086652687682 7.750874545695057 79.519218672934
lradius 17.22705670274615
lwrist -0.8067774258333107
lhand -27.421322191564197 27.623426057350176
lfingers 7.125019999999993
lthumb -0.8705629396041328 57.71638724986012
rfemur -13.016667638911445 4.998367972874423 27.486023616092716
rtibia 41.675547284165134
rfoot -8.077527285091344 -6.442321491813209
rtoes 5.289167182189661
lfemur -15.362524522071315 -1.5496982345325143 -18.629031248667403
ltibia 34.65829456767698
lfoot -4.155345466203398 -3.3160639682207402
ltoes -1.3585677248169716
93
root 0 0 0 -2.6201893537855394 -6.065869166896221 -6.417063868435527
lowerback 9.564329123773804 2.7266739295788844 5.025797565508825
upperback 0.9781224030226761 4.187149853748507 1.07875499309038
thorax -4.157432187877078 1.9745127047038784 -2.195118176327047
lowerneck -12.867732924268932 -3.521962008322953 -1.8853146042939133
upperneck 14.691038326647753 -4.919805985925348 3.3451306029854537
head 6.607596978472828 -2.248416574503026 0.9004678318112798
rclavicle -2.753395746678982E-15 -1.7519537429585484E-15
rhumerus -30.13563734611409 -18.179771683988463 -83.30640076123844
rradius 22.022173047780754
rwrist 14.061379483640124
rhand -19.479444227522045 30.74582428180659
rfingers 7.125020000000003
rthumb 6.856925453029145 0.642323324602998
lclavicle -3.964172389429544E-15 -1.4807471827693609E-15
lhumerus -34.78060689029552 7.636795089661921 79.51747109772056
lradius 17.376049112074984
lwrist -0.6680125410818736
lhand -27.46184014743231 27.690588930499374
lfingers 7.125019999999995
lthumb -0.9092934539930839 57.786058098000645
rfemur -13.542304487447577 4.89723542185289 27.25872284406322
rtibia 42.058242934076944
rfoot -7.813508282825665 -6.501926046226579
rtoes 5.305181980125856
lfemur -14.31358313542442 -2.0185840759404585 -18.99539261729597
ltibia 33.84287163342331
lfoot -4.79355160546908 -2.9645504416198523
ltoes -1.06041232384581
94
root 0 0 0 -2.914877999722389 -6.044295077497143 -6.048321248425715
lowerback 9.714060247794189 2.572256518268689 4.770364958734251
upperback 1.3180223642047342 3.9554742691645366 1.1336929965406493
thorax -3.871623915933915 1.8657153809733886 -1.95248015554317
lowerneck -12.96676997704452 -3.4636233004830785 -1.9556194022796944
upperneck 15.860212425519144 -4.81577563965301 3.2008716203896297
head 6.979593509919909 -2.1977512277171445 0.856293469971743
rclavicle -2.752400467773137E-15 -1.8369757092040895E-15
rhumerus -30.120681231394148 -18.376541719190065 -83.29872507267177
rradius 22.250020597940022
rwrist 14.383173881446794
rhand -19.62264302606463 30.707569706559276
rfingers 7.125020000000003
rthumb 6.72044897286566 0.5877719255469245
lclavicle -3.957817012643867E-15 -1.5988479788922432E-15
lhumerus -34.698349793703564 7.481864814132896 79.51322299018112
lradius 17.57963621433654
lwrist -0.47924024382870556
lhand -27.517135267315332 27.779074442764422
lfingers 7.125019999999997
lthumb -0.9622551316699326 57.87788378386399
rfemur -14.227107987431118 4.769954470104598 26.960564421947463
rtibia 42.51035665768843
rfoot -7.488162530138191 -6.585482251476005
rtoes 5.3066135427896555
lfemur -12.789521305603554 -2.6340837329704483 -19.489382968031176
ltibia 32.773532471245936
lfoot -5.708184801252681 -2.49159315551339
ltoes -0.8075383208981961
95
root 0 0 0 -3.7355387869867456 -5.787478445388709 -4.806750414115227
lowerback 9.20290194191014 2.0742711378610132 3.752984713829753
upperback 1.783332837593793 3.176923933756991 1.211144882221324
thorax -3.082190233206547 1.5046524941169719 -1.1531682165846147
lowerneck -13.57603035086211 -3.145317984162401 -2.079160961013589
upperneck 20.55568843419141 -4.423815699320444 2.8528413131677794
head 8.593997162387437 -1.9640261985872103 0.7408877658447521
rclavicle -2.8931636772056764E-15 -1.847212569264308E-15
rhumerus -30.57929731235945 -18.91713962489641 -83.54348347177384
rradius 22.02552395819906
rwrist 14.991606653632715
rhand -19.80674305928075 30.44157405541104
rfingers 7.125020000000001
rthumb 6.546892381132042 0.29935822970543313
lclavicle -4.034915544797176E-15 -1.7067372108642976E-15
lhumerus -34.53046273224499 7.1225038796664215 79.48217828359594
lradius 18.079361245078907
lwrist -0.03212316156564121
lhand -27.64084936307124 27.96183361001449
lfingers 7.125019999999999
lthumb -1.080678298565518 58.06780158558652
rfemur -15.858217584889601 4.470977381247615 26.222394203383935
rtibia 43.46563049972541
rfoot -6.738040992770497 -6.792483671429964
rtoes 5.265865847599976
lfemur -8.621017432442153 -4.029188711688275 -20.66965984366564
ltibia 30.362228200475894
lfoot -8.149948294269391 -1.3680787919270982
ltoes -0.9095054722565976
